<svg xmlns="http://www.w3.org/2000/svg" viewBox="0 0 14 14"><defs><style>.cls-1{fill:#666666;}</style></defs><title>ico_time</title><g id="레이어_2" data-name="레이어 2"><g id="Layer_1" data-name="Layer 1"><path class="cls-1" d="M9.31,10.29l1-1L7.7,6.72V3.5H6.3V7.28ZM7,14a6.76,6.76,0,0,1-2.73-.55A7,7,0,0,1,.55,9.73,6.76,6.76,0,0,1,0,7,6.76,6.76,0,0,1,.55,4.27,7,7,0,0,1,4.27.55,6.76,6.76,0,0,1,7,0,6.76,6.76,0,0,1,9.73.55a7,7,0,0,1,3.72,3.72A6.76,6.76,0,0,1,14,7a6.76,6.76,0,0,1-.55,2.73,7,7,0,0,1-3.72,3.72A6.76,6.76,0,0,1,7,14Zm0-1.4A5.4,5.4,0,0,0,11,11,5.4,5.4,0,0,0,12.6,7,5.4,5.4,0,0,0,11,3,5.4,5.4,0,0,0,7,1.4,5.4,5.4,0,0,0,3,3,5.4,5.4,0,0,0,1.4,7,5.4,5.4,0,0,0,3,11,5.4,5.4,0,0,0,7,12.6Z"/></g></g></svg>