<svg width="13" height="12" viewBox="0 0 13 12" fill="none" xmlns="http://www.w3.org/2000/svg">
<path d="M1.07076 5.12843C0.739114 4.79679 0.681794 4.31824 0.942486 4.05754L4.71294 0.287089C4.97363 0.0263968 5.45219 0.0837167 5.78383 0.415358C6.11547 0.746999 6.17279 1.22555 5.9121 1.48624L5.47761 1.92073L8.4223 4.52961C9.33569 4.36195 10.3868 4.55876 11.3676 5.13308L11.4385 5.17457C11.6707 5.30958 11.8462 5.5351 11.9133 5.77899C11.9805 6.02288 11.9313 6.25942 11.7796 6.41113L7.06652 11.1242C6.91482 11.2759 6.68162 11.3255 6.43439 11.2579C6.18716 11.1904 5.96311 11.0135 5.82996 10.7831L5.78848 10.7122C5.21416 9.73135 5.01734 8.6803 5.18501 7.76691L2.57613 4.82221L2.14164 5.2567C1.88095 5.51739 1.4024 5.46007 1.07076 5.12843ZM8.50489 8.7921L9.4475 7.84949L12.2927 10.6947C12.6243 11.0263 12.6816 11.5049 12.4209 11.7655C12.1603 12.0262 11.6817 11.9689 11.3501 11.6373L8.50489 8.7921Z" fill="#1A1A1A"/>
</svg>
