<svg xmlns="http://www.w3.org/2000/svg" viewBox="0 0 20 20"><defs><style>.cls-1{fill:#666666;}</style></defs><title>ico_chat</title><g id="레이어_2" data-name="레이어 2"><g id="Layer_1" data-name="Layer 1"><path class="cls-1" d="M14.71,8.71A1,1,0,1,0,14,9,1,1,0,0,0,14.71,8.71Zm-4,0A1,1,0,1,0,10,9,1,1,0,0,0,10.71,8.71Zm-4,0A1,1,0,1,0,6,9,1,1,0,0,0,6.71,8.71ZM16,16H2a1.93,1.93,0,0,1-1.41-.59A1.93,1.93,0,0,1,0,14V2A1.93,1.93,0,0,1,.59.59,1.93,1.93,0,0,1,2,0H18a1.93,1.93,0,0,1,1.41.59A1.93,1.93,0,0,1,20,2V20Zm2-.87V2H2V14H16.85ZM18,2V2Z"/></g></g></svg>