<svg xmlns="http://www.w3.org/2000/svg" viewBox="0 0 21.8 20"><defs><style>.cls-1{fill:#666666;}</style></defs><title>ico_like</title><g id="레이어_2" data-name="레이어 2"><g id="Layer_1" data-name="Layer 1"><path class="cls-1" d="M10.9,20,9.32,18.58C7.48,16.93,6,15.5,4.77,14.31a30.64,30.64,0,0,1-2.86-3.23A10.29,10.29,0,0,1,.42,8.45,7.4,7.4,0,0,1,0,6,5.77,5.77,0,0,1,1.72,1.72,5.77,5.77,0,0,1,6,0a6.26,6.26,0,0,1,2.7.6A6.4,6.4,0,0,1,10.9,2.29,6.4,6.4,0,0,1,13.11.6,6.25,6.25,0,0,1,15.8,0a5.88,5.88,0,0,1,6,6,7.4,7.4,0,0,1-.42,2.46,10.6,10.6,0,0,1-1.49,2.63A30.64,30.64,0,0,1,17,14.31c-1.2,1.19-2.72,2.62-4.55,4.27Zm0-2.94c1.74-1.56,3.18-2.9,4.3-4a32.6,32.6,0,0,0,2.67-2.92,9.11,9.11,0,0,0,1.37-2.2A5.34,5.34,0,0,0,19.62,6,3.73,3.73,0,0,0,15.8,2.18a4.23,4.23,0,0,0-2.37.72,3.81,3.81,0,0,0-1.5,1.84H9.86A3.73,3.73,0,0,0,8.37,2.9,4.24,4.24,0,0,0,6,2.18,3.72,3.72,0,0,0,2.18,6a5.34,5.34,0,0,0,.38,1.93,9.35,9.35,0,0,0,1.36,2.2A36,36,0,0,0,6.59,13Q8.29,14.72,10.9,17.06Z"/></g></g></svg>